<svg xmlns="http://www.w3.org/2000/svg" id="Layer_1" data-name="Layer 1" viewBox="231 203.52 306 360.98">
  <defs>
    <style>
      .cls-1 {
        fill: #51a684;
      }

      .cls-2 {
        fill: #95c2b9;
      }

      .cls-3 {
        fill: #115748;
      }
    </style>
  </defs>
  <path class="cls-3" d="M497.64,422.24v99.31c0,3.44-2.12,6.52-5.33,7.75l-90.36,34.64c-5.44,2.09-11.27-1.93-11.27-7.75v-137.31c0-.48,.04-.94,.12-1.41l24.78,25.78c3.57,3.71,8.56,5.83,13.69,5.83,2.51,0,4.97-.5,7.29-1.46l61.07-25.37Z"/>
  <path class="cls-1" d="M531.88,396.43l-99.42,41.3c-3.16,1.31-6.79,.55-9.16-1.91l-32.22-33.51c-4.05-4.21-2.6-11.17,2.8-13.41l99.42-41.3c3.16-1.31,6.79-.55,9.16,1.91l32.22,33.51c4.05,4.21,2.6,11.17-2.8,13.41Z"/>
  <path class="cls-3" d="M377.32,418.87v137.31c0,5.83-5.83,9.84-11.27,7.75l-90.36-34.64c-3.21-1.23-5.33-4.31-5.33-7.75v-99.31l61.07,25.37c2.32,.96,4.78,1.46,7.29,1.46,5.13,0,10.13-2.14,13.69-5.83l24.78-25.78c.09,.46,.12,.93,.12,1.41Z"/>
  <path class="cls-1" d="M236.12,396.43l99.42,41.3c3.16,1.31,6.79,.55,9.16-1.91l32.22-33.51c4.05-4.21,2.6-11.17-2.8-13.41l-99.42-41.3c-3.16-1.31-6.79-.55-9.16,1.91l-32.22,33.51c-4.05,4.21-2.6,11.17,2.8,13.41Z"/>
  <g>
    <path class="cls-1" d="M393.88,294.82l99.42,41.3c3.16,1.31,6.79,.55,9.16-1.91l32.22-33.51c4.05-4.21,2.6-11.17-2.8-13.41l-99.42-41.3c-3.16-1.31-6.79-.55-9.16,1.91l-32.22,33.51c-4.05,4.21-2.6,11.17,2.8,13.41Z"/>
    <path class="cls-1" d="M374.12,294.82l-99.42,41.3c-3.16,1.31-6.79,.55-9.16-1.91l-32.22-33.51c-4.05-4.21-2.6-11.17,2.8-13.41l99.42-41.3c3.16-1.31,6.79-.55,9.16,1.91l32.22,33.51c4.05,4.21,2.6,11.17-2.8,13.41Z"/>
  </g>
  <rect class="cls-1" x="338.99" y="327.6" width="24.96" height="24.96" transform="translate(-95.07 140.62) rotate(-19.99)"/>
  <rect class="cls-3" x="406.73" y="334.73" width="24.96" height="24.96" transform="translate(-93.43 164.21) rotate(-19.99)"/>
  <rect class="cls-2" x="371.08" y="227.77" width="24.96" height="24.96" transform="translate(-66.39 289.05) rotate(-38.25)"/>
  <rect class="cls-3" x="422.82" y="206.43" width="14.16" height="14.16" transform="translate(-17.46 387.48) rotate(-47.66)"/>
  <rect class="cls-2" x="384.44" y="310.66" width="12.49" height="12.49" transform="translate(-84.79 152.63) rotate(-19.99)"/>
</svg>